<?xml version="1.0" encoding="iso-8859-1"?>
<!-- Uploaded to: SVG Repo, www.svgrepo.com, Generator: SVG Repo Mixer Tools -->
<svg fill="#000000" version="1.1" id="Layer_1" xmlns="http://www.w3.org/2000/svg" xmlns:xlink="http://www.w3.org/1999/xlink" 
	 viewBox="0 0 512 512" xml:space="preserve">
<g>
	<g>
		<path d="M256,291.156l-62.679-62.679v38.504c0,34.561,28.118,62.679,62.679,62.679c34.561,0,62.679-28.118,62.679-62.679v-38.504
			L256,291.156z"/>
	</g>
</g>
<g>
	<g>
		
			<rect x="233.497" y="188.469" transform="matrix(0.7071 -0.7071 0.7071 0.7071 -74.1999 242.8143)" width="45.011" height="45.011"/>
	</g>
</g>
<g>
	<g>
		<path d="M79.358,102.875V512h353.283V102.875H79.358z M352.868,266.981c0,47.578-34.49,87.226-79.774,95.327v87.013h-34.189
			v-87.013c-45.284-8.1-79.774-47.749-79.774-95.327V145.937l40.865,40.865L256,130.798l56.003,56.003l40.865-40.865V266.981z"/>
	</g>
</g>
<g>
	<g>
		<polygon points="119.768,76.664 273.094,76.664 273.094,0 		"/>
	</g>
</g>
</svg>