<?xml version="1.0" encoding="iso-8859-1"?>
<!-- Uploaded to: SVG Repo, www.svgrepo.com, Generator: SVG Repo Mixer Tools -->
<svg fill="#000000" height="800px" width="800px" version="1.1" id="Layer_1" xmlns="http://www.w3.org/2000/svg" xmlns:xlink="http://www.w3.org/1999/xlink" 
	 viewBox="0 0 512 512" xml:space="preserve">
<g>
	<g>
		<g>
			<path d="M460.8,0H127.923c-23.526,0-42.667,19.14-42.667,42.667v349.807l-59.58-0.017C11.52,392.457,0,403.977,0,418.133V460.8
				C0,489.037,22.963,512,51.2,512h324.267c0.06,0,0.111-0.034,0.171-0.034c12.629-0.068,24.892-4.753,34.27-13.278
				c10.65-9.685,16.759-23.492,16.759-37.888V119.543h59.657c14.157,0,25.677-11.52,25.677-25.677V51.2
				C512,22.963,489.037,0,460.8,0z M204.8,51.2h102.4c4.71,0,8.533,3.814,8.533,8.533s-3.823,8.533-8.533,8.533H204.8
				c-4.71,0-8.533-3.814-8.533-8.533S200.09,51.2,204.8,51.2z M145.067,102.4h221.867c4.71,0,8.533,3.814,8.533,8.533
				s-3.823,8.533-8.533,8.533H145.067c-4.71,0-8.533-3.814-8.533-8.533S140.356,102.4,145.067,102.4z M145.067,153.6h221.867
				c4.71,0,8.533,3.814,8.533,8.533s-3.823,8.533-8.533,8.533H145.067c-4.71,0-8.533-3.814-8.533-8.533S140.356,153.6,145.067,153.6
				z M51.2,494.933c-18.825,0-34.133-15.309-34.133-34.133v-42.667c0-4.753,3.866-8.61,8.602-8.61l298.598,0.077v49.365v1.835
				c0,0.614,0.145,1.195,0.171,1.8c0.06,0.956,0.154,1.903,0.264,2.85c1.033,11.247,5.495,21.513,12.638,29.483H51.2z
				 M298.667,375.467c-36.386,0-67.934-20.855-83.507-51.2h-70.093c-4.71,0-8.533-3.814-8.533-8.533s3.823-8.533,8.533-8.533h63.369
				c-2.313-8.149-3.635-16.717-3.635-25.6c0-2.884,0.179-5.717,0.435-8.533h-60.169c-4.71,0-8.533-3.814-8.533-8.533
				s3.823-8.533,8.533-8.533h63.369c3.601-12.655,9.711-24.252,17.877-34.133h-81.246c-4.71,0-8.533-3.814-8.533-8.533
				c0-4.719,3.823-8.533,8.533-8.533h99.797c15.258-10.718,33.783-17.067,53.803-17.067c51.755,0,93.867,42.112,93.867,93.867
				C392.533,333.355,350.421,375.467,298.667,375.467z M494.933,93.867c0,4.753-3.866,8.61-8.61,8.61h-59.657V51.2
				c0-18.825,15.309-34.133,34.133-34.133c18.825,0,34.133,15.309,34.133,34.133V93.867z"/>
			<path d="M298.667,204.797c-42.342,0-76.8,34.449-76.8,76.8c0,42.351,34.458,76.8,76.8,76.8s76.8-34.449,76.8-76.8
				C375.467,239.247,341.009,204.797,298.667,204.797z M348.433,252.2l-51.2,76.8c-1.417,2.125-3.721,3.507-6.255,3.755
				c-0.29,0.026-0.563,0.043-0.845,0.043c-2.253,0-4.429-0.887-6.033-2.5l-34.133-34.133c-3.336-3.328-3.336-8.73,0-12.066
				c3.337-3.328,8.73-3.328,12.066,0l26.778,26.778l45.423-68.139c2.62-3.917,7.91-4.983,11.836-2.372
				C349.986,242.984,351.044,248.275,348.433,252.2z"/>
		</g>
	</g>
</g>
</svg>