<?xml version="1.0" encoding="iso-8859-1"?>
<!-- Uploaded to: SVG Repo, https://www.svgrepo.com, Generator: SVG Repo Mixer Tools -->
<svg fill="#000000" height="800px" width="800px" version="1.1" id="Layer_1" xmlns="http://www.w3.org/2000/svg" xmlns:xlink="http://www.w3.org/1999/xlink" 
	 viewBox="0 0 512 512" xml:space="preserve">
<g>
	<g>
		<path d="M459.662,481.328l-31.078-113.353l12.551-79.88c1.508-9.598,1.23-19.393-0.819-28.891l-31.273-144.88
			c-3.536-16.433-19.724-26.887-36.157-23.351c-12.682,2.729-47.545,10.231-53.06,11.418c-16.433,3.536-26.887,19.724-23.35,36.157
			l3.417,15.878l26.447-28.482l-24.437,47.695l-66.525,24.87c1.107-6.231,2.811-13.263,5.423-20.521
			c5.742-15.95,15.878-32.975,33.749-44.92c22.205-14.84,34.873-34.103,42.102-51.251c19.995-5.205,33.46-24.594,30.713-45.613
			c-2.976-22.774-23.851-38.824-46.625-35.848c-22.774,2.976-38.824,23.851-35.848,46.625c0.022,0.175,0.056,0.345,0.082,0.519
			c-6.345,13.734-16.667,42.708-21.113,92.36c-11.719,14.514-18.27,30.861-21.909,45.173c-2.063,8.114-3.191,15.569-3.801,21.667
			c-1.914,1.835-3.431,4.017-4.491,6.405c-4.031-4.631-8.568-6.95-12.493-5.771c-4.662,1.4-6.66,7.044-7.272,11.935
			c-2.944-1.856-6.301-3.164-9.952-3.758c-3.718-0.606-41.322-6.722-47.035-7.651c-14.567-2.368-28.359,7.508-30.665,22.086
			c-13.702,86.589-16.706,106.071-19.43,130.359c-0.733,6.902,1.814,13.217,6.323,17.636H68.481
			c-9.396,0-17.013,7.617-17.013,17.013v100.031c0,9.396,7.617,17.013,17.013,17.013c9.396,0,17.013-7.617,17.013-17.013v-27.975
			h67.378v27.975c0,9.396,7.617,17.013,17.013,17.013c9.396,0,17.013-7.617,17.013-17.013l0.113-104.804l19.649,1.503l-15.3,95.398
			c-1.88,11.727,6.102,22.759,17.829,24.641c11.726,1.879,22.759-6.102,24.641-17.83l18.999-118.466
			c0.784-4.884-0.17-9.84-2.595-14.078c-0.524-0.914-1.091-1.807-1.752-2.644c-3.277-4.157-7.956-6.934-13.119-7.853
			c2.161-1.857,3.918-4.249,5.021-7.091c3.583-9.227-0.993-19.611-10.219-23.193l-57.791-22.439l-12.465-56.759l21.002,40.849
			l18.11,7.032L204.104,258c1.076-0.466,2.126-0.946,3.125-1.452c4.429,3.67,9.605,4.716,13.292,0.434
			c2.592-3.01,3.941-8.208,3.835-14.414c0.536-0.691,1.042-1.378,1.518-2.062c4.391,1.433,9.03,1.328,13.329-0.28l84.191-31.474
			c4.72-1.764,8.612-5.229,10.91-9.715l28.008-54.664l-12.59,62.563c-2.59,12.873-13.391,15.476-20.261,18.042l-13.314,4.978
			l13.9,61.089l-24.72,67.398c-1.569,4.28-1.901,8.917-0.957,13.376l25.612,120.945c2.774,13.094,15.631,21.477,28.751,18.702
			c13.104-2.776,21.477-15.647,18.702-28.751l-24.167-114.119c34.692-94.586,32.543-88.679,32.838-89.613l7.297-1.57l-13.545,88.313
			c-0.516,3.367-0.318,6.805,0.583,10.091l32.445,118.337c3.544,12.925,16.895,20.519,29.802,16.977
			C455.603,507.588,463.204,494.247,459.662,481.328z M273.968,67.952c6.187,7.534,14.92,12.773,24.692,14.555
			c-13.014,25.627-30.924,35.724-36.909,40.166C265.041,98.073,269.768,80.172,273.968,67.952z M152.872,444.327H85.494v-32.36
			h67.378V444.327z M202.336,348.217l-59.859-5.637c-11.738-1.106-20.692-11.015-20.573-22.804c0.002-0.242,0.009-0.482,0.018-0.724
			l2.979-69.987l14.526,66.143c1.287,5.862,5.423,10.69,11.019,12.861L202.336,348.217z"/>
	</g>
</g>
<g>
	<g>
		<circle cx="174.682" cy="154.031" r="39.557"/>
	</g>
</g>
</svg>