<?xml version="1.0" encoding="utf-8"?><!-- Uploaded to: SVG Repo, www.svgrepo.com, Generator: SVG Repo Mixer Tools -->
<svg fill="#000000" width="800px" height="800px" viewBox="-1.52 0 102.176 102.176" xmlns="http://www.w3.org/2000/svg">
  <path id="presentation" d="M606.8,488.577a5.279,5.279,0,0,1-.506-1.4,5.812,5.812,0,0,1-.047-1.2,107.347,107.347,0,0,0-1.1-15.311,11.923,11.923,0,0,1-.072-1.205c-.312-6.827-.644-13.654-.552-20.494.02-1.508-.055-3.018-.017-4.525.086-3.435-.558-6.8-.886-10.2-.238-2.494-.711-4.965-1.09-7.447-.038-.252,0-.676-.413-.576a1.051,1.051,0,0,0-.625.564,21.276,21.276,0,0,0-1.232,3.387A44.574,44.574,0,0,0,599.027,440c.014,1.811-.035,3.622.013,5.431s.131,3.612.3,5.409a6.576,6.576,0,0,1-.434,2.953,2.554,2.554,0,0,1-4.025.971,3.417,3.417,0,0,1-1.347-2.59c-.045-1.407-.108-2.815-.106-4.223.007-5.531.06-11.062.05-16.594a21.479,21.479,0,0,1,2.1-9.019c1.416-3.116,3.953-5.283,6.34-7.584,1.211-.464,2.416-.947,3.639-1.379.409-.145.98.246,1.174.738,1.065,2.713,2.693,5.143,3.95,7.76.118.246.416.408.631.608a2.277,2.277,0,0,0,.353-.682,4.259,4.259,0,0,0-.691-3.407,1.884,1.884,0,0,1,1.229-2.813,4.27,4.27,0,0,1,1.774.006,1.672,1.672,0,0,1,1.311,1.78,4.233,4.233,0,0,1-.367,1.435,2.53,2.53,0,0,0,.087,2.314,7.109,7.109,0,0,0,.464.764,3.274,3.274,0,0,0,.837-.637c1.169-1.757,2.294-3.543,3.435-5.316a1.811,1.811,0,0,1,2.029-.965c4.3,1.018,8.767,1.08,13.027,2.322a46.445,46.445,0,0,0,6.491,1.26c1.589.227,3.181.434,4.776.608a2.684,2.684,0,0,1,1.859.878,2.814,2.814,0,0,1,.8,3.016,2.892,2.892,0,0,1-2.964,2.111,31.246,31.246,0,0,1-7.147-.949,22.762,22.762,0,0,0-5.023-.865,30.025,30.025,0,0,1-4.418-.844c-1.078-.225-2.146-.516-3.229-.719a1.454,1.454,0,0,0-1.475.834,9.967,9.967,0,0,0-.492,1.42,17.039,17.039,0,0,1-1.327,3.664,8.755,8.755,0,0,0-.727,4.116c.029,6.737.012,13.474.012,20.21h.013c0,6.536-.015,13.07.017,19.6,0,1.094.251,2.184.331,3.279.118,1.6.22,3.2.266,4.809a18.192,18.192,0,0,0,.488,5.082,5.611,5.611,0,0,1,.149,1.793,2.793,2.793,0,0,1-1.833,2.524,2.9,2.9,0,0,1-3.253-.957,5.243,5.243,0,0,1-.87-1.9,42.1,42.1,0,0,1-.665-5.069c-.137-2.3.043-4.605-.519-6.89a14.481,14.481,0,0,1-.112-3.307c-.011-2.815,0-5.632-.013-8.448a.931.931,0,0,0-1.147-1.025,10.853,10.853,0,0,0-2.008.563.961.961,0,0,0-.5.671,23.093,23.093,0,0,0-.08,2.408q.035,9.8.084,19.611a26.936,26.936,0,0,1-.047,2.711,2.728,2.728,0,0,1-2.344,2.4,4.666,4.666,0,0,1-.7.055A2.554,2.554,0,0,1,606.8,488.577Zm58.505-6.341c-.589-.382-1.11-.868-1.671-1.292-1.847-1.387-3.673-2.8-5.552-4.144-2.455-1.752-4.953-3.443-7.43-5.161-1-.691-1.544-.7-2.406.069-2.843,2.554-5.659,5.136-8.5,7.687a19.386,19.386,0,0,1-2.566,2.084,2.835,2.835,0,0,1-4.215-1.467,3.87,3.87,0,0,1,.86-4.455c1.4-1.3,2.869-2.526,4.349-3.735q3.619-2.958,7.3-5.84a3,3,0,0,0,1.286-2.543c.031-2.612.192-5.221.3-7.833a1.141,1.141,0,0,0-.961-1.311,3.071,3.071,0,0,1-2.5-2.325,1.643,1.643,0,0,0-1.816-1.231c-2.011-.04-4.02-.159-6.032-.2a5.38,5.38,0,0,1-2.614-.6,1.376,1.376,0,0,1-.815-1.48,2.193,2.193,0,0,1,.748-1.219,4.424,4.424,0,0,1,2.556-.769c5.022-.172,10.047-.4,15.07-.541,3.819-.112,7.634-.093,11.443-.553a37.9,37.9,0,0,1,4.845-.168c.6.005,1.193.01,1.788,0,.98-.01,1.96,0,2.939.005.832.006,1.663.013,2.5.009.287,0,.578.005.868.012a10.489,10.489,0,0,0,2.443-.13,33.5,33.5,0,0,1,8.1-.52.781.781,0,0,0,.817-.7,1.764,1.764,0,0,0,.039-.3q.367-9.793.733-19.589a8.06,8.06,0,0,0-.476-2.939,15.43,15.43,0,0,1-.769-5.344,79.5,79.5,0,0,1,.419-9.334,15.642,15.642,0,0,0-.057-5.111,10.6,10.6,0,0,1-.018-1.782.843.843,0,0,0-.915-.945,9.058,9.058,0,0,0-2.385.237,10.537,10.537,0,0,1-5.067.163,8.94,8.94,0,0,0-1.495-.173c-1.387,0-2.775-.007-4.162-.018-3.545-.026-7.091-.052-10.624.148-3.921.223-7.836.293-11.755.336-5.432.063-10.866.031-16.3.025-1.308,0-2.621.009-3.919-.1a5.861,5.861,0,0,1-2-.589,1.573,1.573,0,0,1-.175-2.735,4.011,4.011,0,0,1,1.636-.66,62.217,62.217,0,0,1,9.612-.717c1.709.019,3.421-.031,5.13-.074.635-.016,1.031-.324.942-.9-.239-1.574.553-2.939.771-4.417a1.549,1.549,0,0,1,1.52-1.244,4.032,4.032,0,0,1,1.2-.006,9.209,9.209,0,0,0,3.843.27,2.134,2.134,0,0,1,2.411,2.127c.06.9,0,1.807.009,2.71a.715.715,0,0,0,.8.691l10.241-.491c0,.031,0,.063,0,.093,2.013,0,4.028.071,6.036-.015a60.357,60.357,0,0,1,11.1.878,2.419,2.419,0,0,0,1.938.055,2.79,2.79,0,0,1,1.6-.09c1.022.344,1.878,1,3.089,1,1.688,0,2.507,1.006,2.548,2.718.067,2.714-.122,5.449.153,8.139.7,6.831.439,13.67.4,20.5-.03,4.717-.48,9.425-.941,14.127-.168,1.7-.182,3.415-.186,5.125a1.728,1.728,0,0,1-1.337,1.768c-1.514.516-3.038,1.007-4.577,1.444-.861.244-1.759.355-2.641.524-5.278,1.009-10.622.635-15.942.778-2.81.076-5.617.319-8.425.475a1.254,1.254,0,0,0-1.291,1.041,2.506,2.506,0,0,1-2.245,2.082,2.347,2.347,0,0,0-2.069,2.769c.207,1.895.457,3.786.719,5.673a1.19,1.19,0,0,0,1.435,1.185c3.632-.156,7.22.468,10.837.586a16.535,16.535,0,0,1,3.562.564,7.318,7.318,0,0,1,2.152,1.036,2.841,2.841,0,0,1,1.019,3.473,2.731,2.731,0,0,1-2.943,1.622,4.184,4.184,0,0,1-1.176-.241,8.9,8.9,0,0,0-2.955-.491c-1.7-.125-3.4-.338-5.1-.481a2.264,2.264,0,0,0-.762.229,3.014,3.014,0,0,0,.528.706c2.372,1.69,4.779,3.331,7.136,5.042a22.981,22.981,0,0,1,2.241,2.014,2.729,2.729,0,0,1,.77,1.911,2.891,2.891,0,0,1-1.552,3.025,3.693,3.693,0,0,1-1.648.413A3.251,3.251,0,0,1,665.3,482.235Zm-16.781-90.3c-.234.845-.049,1.619.467,1.81.231.085.725.02.8-.127a1.647,1.647,0,0,0-.33-1.853c-.105-.125-.346-.139-.523-.205C648.791,391.689,648.565,391.786,648.523,391.939Zm-7.875,42.845a1.523,1.523,0,0,1-.746-2.426,5.689,5.689,0,0,1,1.414-1.08c1.149-.619,2.34-1.162,3.51-1.741a61.882,61.882,0,0,0,8.077-4.683,3.749,3.749,0,0,1,3.7-.582,11.237,11.237,0,0,1,1.3.753,4.9,4.9,0,0,0,1.33.676,1.242,1.242,0,0,0,1.022-.383,23.685,23.685,0,0,0,1.859-2.741,8.3,8.3,0,0,1,3.513-3.2,5.781,5.781,0,0,1,4.662-.451c.572.187,1.153.355,1.719.564.406.15.58-.123.671-.384.232-.661.388-1.345.6-2.014.606-1.91,1.165-3.839,1.855-5.719a2.672,2.672,0,0,1,2.8-1.864,2.7,2.7,0,0,1,2.634,2.965,7.13,7.13,0,0,1-.269,1.22,66.048,66.048,0,0,0-2.568,9.271c-.065.293-.122.592-.206.878a3.161,3.161,0,0,1-3.928,2.34,13.922,13.922,0,0,1-2.5-.992c-.731-.331-1.41-.774-2.149-1.082a1.548,1.548,0,0,0-2.08.691c-1.027,1.606-2.042,3.223-3,4.873-1.105,1.914-2.122,2.338-4.2,1.786a8.71,8.71,0,0,1-3.414-1.856c-.889-.756-1.509-.535-2.375.017a40.981,40.981,0,0,1-8.287,4.271,22.8,22.8,0,0,1-2.861.921,4.657,4.657,0,0,1-.948.094A5.509,5.509,0,0,1,640.648,434.784Zm-31.509-23.739a12.721,12.721,0,0,1-2.87-4.885c-.346-1.07-.7-2.1-1.884-2.525a.649.649,0,0,1-.237-.182c-1.532-1.669-2.005-3.18.127-4.828a4.126,4.126,0,0,0,1.719-2.614,12.942,12.942,0,0,1,1.814-4.109c1.992-3.267,4.665-3.363,7.565-2.659a4.57,4.57,0,0,1,2.893,2.887,10,10,0,0,1,.748,4.113,1.486,1.486,0,0,0,.874,1.448,3.068,3.068,0,0,1,1.575,1.322,3.15,3.15,0,0,1-.678,3.839,2.058,2.058,0,0,1-.488.347,2.876,2.876,0,0,0-1.58,2.692,8.016,8.016,0,0,1-.548,2.334,18.872,18.872,0,0,1-1.595,3.209,3.849,3.849,0,0,1-3.253,1.492A6.632,6.632,0,0,1,609.139,411.044Zm5.042-17.72c-.323.725-.632,1.46-.993,2.164a3.644,3.644,0,0,0,.05,3.7,2.374,2.374,0,0,1,.342,2.492,1.173,1.173,0,0,0,.445,1.56,1.18,1.18,0,0,1,.323,1.6q-.593,1.207-1.109,2.451c-.044.107.106.375.235.447.151.086.457.127.555.037a3.7,3.7,0,0,0,.937-1.078c1.013-2.243,1.106-4.634.966-7.73,0-.312-.021-1.313.005-2.309a4.672,4.672,0,0,0-1.2-3.292c-.1-.108-.2-.3-.32-.3C614.344,393.066,614.266,393.133,614.181,393.324Z" transform="translate(-593.428 -387.768)"/>
</svg>