<?xml version="1.0" encoding="iso-8859-1"?>
<!-- Uploaded to: SVG Repo, www.svgrepo.com, Generator: SVG Repo Mixer Tools -->
<!DOCTYPE svg PUBLIC "-//W3C//DTD SVG 1.1//EN" "http://www.w3.org/Graphics/SVG/1.1/DTD/svg11.dtd">
<svg fill="#000000" version="1.1" id="Capa_1" xmlns="http://www.w3.org/2000/svg" xmlns:xlink="http://www.w3.org/1999/xlink" 
	 width="800px" height="800px" viewBox="0 0 31.294 31.294"
	 xml:space="preserve">
<g>
	<g>
		<circle cx="24.724" cy="3.235" r="3.235"/>
		<path d="M27.434,7.715l-2.71,3.74l-2.678-3.488L18.84,11.91l-2.572-2.285c-0.54-0.481-1.367-0.432-1.852,0.108
			c-0.478,0.541-0.432,1.369,0.109,1.851l3.595,3.194c0.239,0.214,0.548,0.332,0.867,0.332c0.032,0,0.062-0.001,0.098-0.006
			c0.354-0.028,0.686-0.201,0.913-0.478l1.423-1.769v4.872c0,0.61,0,1.181,0.325,1.668v10.617c0,0.727,0.66,1.28,1.385,1.28
			s1.387-0.499,1.387-1.335h0.35c0,0.836,0.596,1.335,1.319,1.335c0.723,0,1.322-0.555,1.322-1.28V19.396
			c0.325-0.49,0.325-1.058,0.325-1.668v-4.23c0.558,1.169,0.579,2.706,0.573,4.665c-0.001,0.726,0.667,1.341,1.394,1.341h0.001
			c0.722,0,1.309-0.607,1.312-1.334C31.13,11.448,28.95,8.757,27.434,7.715z"/>
		<path d="M26.232,6.808l-0.768,0.33C25.306,6.87,25.02,6.69,24.684,6.69c-0.337,0-0.624,0.183-0.778,0.454l-0.768-0.323
			c-0.111-0.048-0.268-0.035-0.366,0.031c-0.103,0.068-0.188,0.181-0.188,0.304v0.96c0,0.115,0.078,0.224,0.17,0.292
			c0.095,0.068,0.226,0.089,0.338,0.057c0.306-0.094,0.693-0.207,0.908-0.273c0.167,0.191,0.416,0.312,0.685,0.312
			c0.284,0,0.534-0.13,0.703-0.33c0.213,0.065,0.586,0.179,0.888,0.271c0.11,0.032,0.19,0.012,0.284-0.056s0.114-0.176,0.114-0.292
			V7.142c0-0.122-0.028-0.233-0.13-0.301C26.44,6.772,26.346,6.762,26.232,6.808z"/>
		<path d="M11.773,12.094c-0.133-0.132-0.311-0.207-0.498-0.207c-0.186,0-0.366,0.075-0.497,0.207l-2.231,2.232
			c-0.298,0.297-0.777,0.297-1.074,0L4.01,10.868c-0.106-0.108-0.167-0.254-0.167-0.405c0-0.151,0.061-0.297,0.167-0.404
			l0.684-0.681c0.071-0.07,0.094-0.177,0.054-0.269C4.709,9.015,4.62,8.954,4.52,8.954H0.982c-0.216,0-0.421,0.087-0.571,0.24
			C0.261,9.347,0.178,9.554,0.181,9.77l0.053,3.473c0.001,0.099,0.062,0.188,0.153,0.226c0.092,0.037,0.197,0.016,0.268-0.055
			l0.805-0.806c0.105-0.108,0.253-0.167,0.402-0.167c0.153-0.001,0.299,0.06,0.407,0.167l5.205,5.205
			c0.142,0.143,0.336,0.223,0.536,0.223c0.201,0,0.395-0.08,0.538-0.223l2.192-2.193c0.142-0.143,0.336-0.222,0.536-0.222
			c0.202,0,0.394,0.08,0.537,0.222l4.023,4.021c0.275,0.275,0.723,0.275,0.997,0l0.748-0.746c0.132-0.133,0.207-0.312,0.207-0.498
			c0-0.187-0.075-0.365-0.207-0.498L11.773,12.094z"/>
	</g>
</g>
</svg>